# xmcd CD database file
#
# Track frame offsets:
#	182
#	14417
#	27215
#	39440
#	54490
#	68905
#	82712
#	98235
#	108972
#	118842
#	133485
#	146017
#
# Disc length: 2125 seconds
#
# Revision: 0
# Processed by: cddbd v1.5.1PL0 Copyright (c) Steve Scherf et al.
# Submitted via: CDex 1.51
#
DISCID=a1084b0c
DTITLE=Varios - Canciones Mi Mama No Me Enseño
DYEAR=1964
DGENRE=Salsa
TTITLE0=Cubanito
TTITLE1=Prestame La Olla Teresa
TTITLE2=Juanita Saca La MAno
TTITLE3=Si Si No No
TTITLE4=Chupa
TTITLE5=Juanito
TTITLE6=El Plato Roto
TTITLE7=La Manguera
TTITLE8=Los Perros Del Curro
TTITLE9=Ay, Jose
TTITLE10=Atesa El Bastidor
TTITLE11=Ella Sola Se Engancha
EXTD=YEAR: 1964
EXTT0=
EXTT1=
EXTT2=
EXTT3=
EXTT4=
EXTT5=
EXTT6=
EXTT7=
EXTT8=
EXTT9=
EXTT10=
EXTT11=
PLAYORDER=
